<svg width="235" height="150" viewBox="0 0 235 150" fill="none" xmlns="http://www.w3.org/2000/svg">
<path d="M34.6875 32.5V38.7188H10.5312V32.5H34.6875ZM12.4688 13.5V59H4.625V13.5H12.4688ZM40.7188 13.5V59H32.9062V13.5H40.7188ZM86.3438 35V37.5C86.3438 40.9375 85.8958 44.0208 85 46.75C84.1042 49.4792 82.8229 51.8021 81.1562 53.7188C79.5104 55.6354 77.5312 57.1042 75.2188 58.125C72.9062 59.125 70.3438 59.625 67.5312 59.625C64.7396 59.625 62.1875 59.125 59.875 58.125C57.5833 57.1042 55.5938 55.6354 53.9062 53.7188C52.2188 51.8021 50.9062 49.4792 49.9688 46.75C49.0521 44.0208 48.5938 40.9375 48.5938 37.5V35C48.5938 31.5625 49.0521 28.4896 49.9688 25.7812C50.8854 23.0521 52.1771 20.7292 53.8438 18.8125C55.5312 16.875 57.5208 15.4062 59.8125 14.4062C62.125 13.3854 64.6771 12.875 67.4688 12.875C70.2812 12.875 72.8438 13.3854 75.1562 14.4062C77.4688 15.4062 79.4583 16.875 81.125 18.8125C82.7917 20.7292 84.0729 23.0521 84.9688 25.7812C85.8854 28.4896 86.3438 31.5625 86.3438 35ZM78.5 37.5V34.9375C78.5 32.3958 78.25 30.1562 77.75 28.2188C77.2708 26.2604 76.5521 24.625 75.5938 23.3125C74.6562 21.9792 73.5 20.9792 72.125 20.3125C70.75 19.625 69.1979 19.2812 67.4688 19.2812C65.7396 19.2812 64.1979 19.625 62.8438 20.3125C61.4896 20.9792 60.3333 21.9792 59.375 23.3125C58.4375 24.625 57.7188 26.2604 57.2188 28.2188C56.7188 30.1562 56.4688 32.3958 56.4688 34.9375V37.5C56.4688 40.0417 56.7188 42.2917 57.2188 44.25C57.7188 46.2083 58.4479 47.8646 59.4062 49.2188C60.3854 50.5521 61.5521 51.5625 62.9062 52.25C64.2604 52.9167 65.8021 53.25 67.5312 53.25C69.2812 53.25 70.8333 52.9167 72.1875 52.25C73.5417 51.5625 74.6875 50.5521 75.625 49.2188C76.5625 47.8646 77.2708 46.2083 77.75 44.25C78.25 42.2917 78.5 40.0417 78.5 37.5ZM119.719 13.5H127.531V43.9062C127.531 47.3646 126.781 50.2604 125.281 52.5938C123.781 54.9271 121.74 56.6875 119.156 57.875C116.594 59.0417 113.729 59.625 110.562 59.625C107.292 59.625 104.375 59.0417 101.812 57.875C99.25 56.6875 97.2292 54.9271 95.75 52.5938C94.2917 50.2604 93.5625 47.3646 93.5625 43.9062V13.5H101.375V43.9062C101.375 46.0938 101.75 47.8958 102.5 49.3125C103.25 50.7083 104.312 51.7396 105.688 52.4062C107.062 53.0729 108.688 53.4062 110.562 53.4062C112.438 53.4062 114.052 53.0729 115.406 52.4062C116.781 51.7396 117.844 50.7083 118.594 49.3125C119.344 47.8958 119.719 46.0938 119.719 43.9062V13.5ZM160 47.2812C160 46.3438 159.854 45.5104 159.562 44.7812C159.292 44.0521 158.802 43.3854 158.094 42.7812C157.385 42.1771 156.385 41.5938 155.094 41.0312C153.823 40.4479 152.198 39.8542 150.219 39.25C148.052 38.5833 146.052 37.8438 144.219 37.0312C142.406 36.1979 140.823 35.2396 139.469 34.1562C138.115 33.0521 137.062 31.7917 136.312 30.375C135.562 28.9375 135.188 27.2812 135.188 25.4062C135.188 23.5521 135.573 21.8646 136.344 20.3438C137.135 18.8229 138.25 17.5104 139.688 16.4062C141.146 15.2812 142.865 14.4167 144.844 13.8125C146.823 13.1875 149.01 12.875 151.406 12.875C154.781 12.875 157.688 13.5 160.125 14.75C162.583 16 164.469 17.6771 165.781 19.7812C167.115 21.8854 167.781 24.2083 167.781 26.75H160C160 25.25 159.677 23.9271 159.031 22.7812C158.406 21.6146 157.448 20.6979 156.156 20.0312C154.885 19.3646 153.271 19.0312 151.312 19.0312C149.458 19.0312 147.917 19.3125 146.688 19.875C145.458 20.4375 144.542 21.1979 143.938 22.1562C143.333 23.1146 143.031 24.1979 143.031 25.4062C143.031 26.2604 143.229 27.0417 143.625 27.75C144.021 28.4375 144.625 29.0833 145.438 29.6875C146.25 30.2708 147.271 30.8229 148.5 31.3438C149.729 31.8646 151.177 32.3646 152.844 32.8438C155.365 33.5938 157.562 34.4271 159.438 35.3438C161.312 36.2396 162.875 37.2604 164.125 38.4062C165.375 39.5521 166.312 40.8542 166.938 42.3125C167.562 43.75 167.875 45.3854 167.875 47.2188C167.875 49.1354 167.49 50.8646 166.719 52.4062C165.948 53.9271 164.844 55.2292 163.406 56.3125C161.99 57.375 160.281 58.1979 158.281 58.7812C156.302 59.3438 154.094 59.625 151.656 59.625C149.469 59.625 147.312 59.3333 145.188 58.75C143.083 58.1667 141.167 57.2812 139.438 56.0938C137.708 54.8854 136.333 53.3854 135.312 51.5938C134.292 49.7812 133.781 47.6667 133.781 45.25H141.625C141.625 46.7292 141.875 47.9896 142.375 49.0312C142.896 50.0729 143.615 50.9271 144.531 51.5938C145.448 52.2396 146.51 52.7188 147.719 53.0312C148.948 53.3438 150.26 53.5 151.656 53.5C153.49 53.5 155.021 53.2396 156.25 52.7188C157.5 52.1979 158.438 51.4688 159.062 50.5312C159.688 49.5938 160 48.5104 160 47.2812ZM204.594 52.7812V59H180.438V52.7812H204.594ZM182.656 13.5V59H174.812V13.5H182.656ZM201.438 32.5V38.625H180.438V32.5H201.438ZM204.438 13.5V19.75H180.438V13.5H204.438ZM28.5625 122.281C28.5625 121.344 28.4167 120.51 28.125 119.781C27.8542 119.052 27.3646 118.385 26.6562 117.781C25.9479 117.177 24.9479 116.594 23.6562 116.031C22.3854 115.448 20.7604 114.854 18.7812 114.25C16.6146 113.583 14.6146 112.844 12.7812 112.031C10.9688 111.198 9.38542 110.24 8.03125 109.156C6.67708 108.052 5.625 106.792 4.875 105.375C4.125 103.938 3.75 102.281 3.75 100.406C3.75 98.5521 4.13542 96.8646 4.90625 95.3438C5.69792 93.8229 6.8125 92.5104 8.25 91.4062C9.70833 90.2812 11.4271 89.4167 13.4062 88.8125C15.3854 88.1875 17.5729 87.875 19.9688 87.875C23.3438 87.875 26.25 88.5 28.6875 89.75C31.1458 91 33.0312 92.6771 34.3438 94.7812C35.6771 96.8854 36.3438 99.2083 36.3438 101.75H28.5625C28.5625 100.25 28.2396 98.9271 27.5938 97.7812C26.9688 96.6146 26.0104 95.6979 24.7188 95.0312C23.4479 94.3646 21.8333 94.0312 19.875 94.0312C18.0208 94.0312 16.4792 94.3125 15.25 94.875C14.0208 95.4375 13.1042 96.1979 12.5 97.1562C11.8958 98.1146 11.5938 99.1979 11.5938 100.406C11.5938 101.26 11.7917 102.042 12.1875 102.75C12.5833 103.438 13.1875 104.083 14 104.688C14.8125 105.271 15.8333 105.823 17.0625 106.344C18.2917 106.865 19.7396 107.365 21.4062 107.844C23.9271 108.594 26.125 109.427 28 110.344C29.875 111.24 31.4375 112.26 32.6875 113.406C33.9375 114.552 34.875 115.854 35.5 117.312C36.125 118.75 36.4375 120.385 36.4375 122.219C36.4375 124.135 36.0521 125.865 35.2812 127.406C34.5104 128.927 33.4062 130.229 31.9688 131.312C30.5521 132.375 28.8438 133.198 26.8438 133.781C24.8646 134.344 22.6562 134.625 20.2188 134.625C18.0312 134.625 15.875 134.333 13.75 133.75C11.6458 133.167 9.72917 132.281 8 131.094C6.27083 129.885 4.89583 128.385 3.875 126.594C2.85417 124.781 2.34375 122.667 2.34375 120.25H10.1875C10.1875 121.729 10.4375 122.99 10.9375 124.031C11.4583 125.073 12.1771 125.927 13.0938 126.594C14.0104 127.24 15.0729 127.719 16.2812 128.031C17.5104 128.344 18.8229 128.5 20.2188 128.5C22.0521 128.5 23.5833 128.24 24.8125 127.719C26.0625 127.198 27 126.469 27.625 125.531C28.25 124.594 28.5625 123.51 28.5625 122.281ZM62.0938 88.5V134H54.3125V88.5H62.0938ZM76.375 88.5V94.75H40.1562V88.5H76.375ZM107.906 88.5H115.719V118.906C115.719 122.365 114.969 125.26 113.469 127.594C111.969 129.927 109.927 131.688 107.344 132.875C104.781 134.042 101.917 134.625 98.75 134.625C95.4792 134.625 92.5625 134.042 90 132.875C87.4375 131.688 85.4167 129.927 83.9375 127.594C82.4792 125.26 81.75 122.365 81.75 118.906V88.5H89.5625V118.906C89.5625 121.094 89.9375 122.896 90.6875 124.312C91.4375 125.708 92.5 126.74 93.875 127.406C95.25 128.073 96.875 128.406 98.75 128.406C100.625 128.406 102.24 128.073 103.594 127.406C104.969 126.74 106.031 125.708 106.781 124.312C107.531 122.896 107.906 121.094 107.906 118.906V88.5ZM137.469 134H127.75L127.812 127.781H137.469C140.281 127.781 142.635 127.167 144.531 125.938C146.448 124.708 147.885 122.948 148.844 120.656C149.823 118.365 150.312 115.635 150.312 112.469V110C150.312 107.542 150.031 105.365 149.469 103.469C148.927 101.573 148.115 99.9792 147.031 98.6875C145.969 97.3958 144.656 96.4167 143.094 95.75C141.552 95.0833 139.771 94.75 137.75 94.75H127.562V88.5H137.75C140.771 88.5 143.531 89.0104 146.031 90.0312C148.531 91.0312 150.688 92.4792 152.5 94.375C154.333 96.2708 155.74 98.5417 156.719 101.188C157.698 103.833 158.188 106.792 158.188 110.062V112.469C158.188 115.74 157.698 118.698 156.719 121.344C155.74 123.99 154.333 126.26 152.5 128.156C150.667 130.031 148.479 131.479 145.938 132.5C143.417 133.5 140.594 134 137.469 134ZM132.094 88.5V134H124.25V88.5H132.094ZM174.438 88.5V134H166.594V88.5H174.438ZM220.469 110V112.5C220.469 115.938 220.021 119.021 219.125 121.75C218.229 124.479 216.948 126.802 215.281 128.719C213.635 130.635 211.656 132.104 209.344 133.125C207.031 134.125 204.469 134.625 201.656 134.625C198.865 134.625 196.312 134.125 194 133.125C191.708 132.104 189.719 130.635 188.031 128.719C186.344 126.802 185.031 124.479 184.094 121.75C183.177 119.021 182.719 115.938 182.719 112.5V110C182.719 106.562 183.177 103.49 184.094 100.781C185.01 98.0521 186.302 95.7292 187.969 93.8125C189.656 91.875 191.646 90.4062 193.938 89.4062C196.25 88.3854 198.802 87.875 201.594 87.875C204.406 87.875 206.969 88.3854 209.281 89.4062C211.594 90.4062 213.583 91.875 215.25 93.8125C216.917 95.7292 218.198 98.0521 219.094 100.781C220.01 103.49 220.469 106.562 220.469 110ZM212.625 112.5V109.938C212.625 107.396 212.375 105.156 211.875 103.219C211.396 101.26 210.677 99.625 209.719 98.3125C208.781 96.9792 207.625 95.9792 206.25 95.3125C204.875 94.625 203.323 94.2812 201.594 94.2812C199.865 94.2812 198.323 94.625 196.969 95.3125C195.615 95.9792 194.458 96.9792 193.5 98.3125C192.562 99.625 191.844 101.26 191.344 103.219C190.844 105.156 190.594 107.396 190.594 109.938V112.5C190.594 115.042 190.844 117.292 191.344 119.25C191.844 121.208 192.573 122.865 193.531 124.219C194.51 125.552 195.677 126.562 197.031 127.25C198.385 127.917 199.927 128.25 201.656 128.25C203.406 128.25 204.958 127.917 206.312 127.25C207.667 126.562 208.812 125.552 209.75 124.219C210.688 122.865 211.396 121.208 211.875 119.25C212.375 117.292 212.625 115.042 212.625 112.5Z" fill="#F5F5F5"/>
</svg>
