<svg width="137" height="15" viewBox="0 0 137 15" fill="none" xmlns="http://www.w3.org/2000/svg">
<path d="M9.39453 6.13281V8.07617H1.8457V6.13281H9.39453ZM2.45117 0.195312V14.4141H0V0.195312H2.45117ZM11.2793 0.195312V14.4141H8.83789V0.195312H11.2793ZM25.5371 6.91406V7.69531C25.5371 8.76953 25.3971 9.73307 25.1172 10.5859C24.8372 11.4388 24.4368 12.1647 23.916 12.7637C23.4017 13.3626 22.7832 13.8216 22.0605 14.1406C21.3379 14.4531 20.5371 14.6094 19.6582 14.6094C18.7858 14.6094 17.9883 14.4531 17.2656 14.1406C16.5495 13.8216 15.9277 13.3626 15.4004 12.7637C14.873 12.1647 14.4629 11.4388 14.1699 10.5859C13.8835 9.73307 13.7402 8.76953 13.7402 7.69531V6.91406C13.7402 5.83984 13.8835 4.87956 14.1699 4.0332C14.4564 3.18034 14.86 2.45443 15.3809 1.85547C15.9082 1.25 16.5299 0.791016 17.2461 0.478516C17.9688 0.159505 18.7663 0 19.6387 0C20.5176 0 21.3184 0.159505 22.041 0.478516C22.7637 0.791016 23.3854 1.25 23.9062 1.85547C24.4271 2.45443 24.8275 3.18034 25.1074 4.0332C25.3939 4.87956 25.5371 5.83984 25.5371 6.91406ZM23.0859 7.69531V6.89453C23.0859 6.10026 23.0078 5.40039 22.8516 4.79492C22.7018 4.18294 22.4772 3.67188 22.1777 3.26172C21.8848 2.84505 21.5234 2.53255 21.0938 2.32422C20.6641 2.10938 20.179 2.00195 19.6387 2.00195C19.0983 2.00195 18.6165 2.10938 18.1934 2.32422C17.7702 2.53255 17.4089 2.84505 17.1094 3.26172C16.8164 3.67188 16.5918 4.18294 16.4355 4.79492C16.2793 5.40039 16.2012 6.10026 16.2012 6.89453V7.69531C16.2012 8.48958 16.2793 9.19271 16.4355 9.80469C16.5918 10.4167 16.8197 10.9342 17.1191 11.3574C17.4251 11.7741 17.7897 12.0898 18.2129 12.3047C18.6361 12.513 19.1178 12.6172 19.6582 12.6172C20.2051 12.6172 20.6901 12.513 21.1133 12.3047C21.5365 12.0898 21.8945 11.7741 22.1875 11.3574C22.4805 10.9342 22.7018 10.4167 22.8516 9.80469C23.0078 9.19271 23.0859 8.48958 23.0859 7.69531ZM35.9668 0.195312H38.4082V9.69727C38.4082 10.778 38.1738 11.6829 37.7051 12.4121C37.2363 13.1413 36.5983 13.6914 35.791 14.0625C34.9902 14.4271 34.0951 14.6094 33.1055 14.6094C32.0833 14.6094 31.1719 14.4271 30.3711 14.0625C29.5703 13.6914 28.9388 13.1413 28.4766 12.4121C28.0208 11.6829 27.793 10.778 27.793 9.69727V0.195312H30.2344V9.69727C30.2344 10.3809 30.3516 10.944 30.5859 11.3867C30.8203 11.8229 31.1523 12.1452 31.582 12.3535C32.0117 12.5618 32.5195 12.666 33.1055 12.666C33.6914 12.666 34.196 12.5618 34.6191 12.3535C35.0488 12.1452 35.3809 11.8229 35.6152 11.3867C35.8496 10.944 35.9668 10.3809 35.9668 9.69727V0.195312ZM48.5547 10.752C48.5547 10.459 48.5091 10.1986 48.418 9.9707C48.3333 9.74284 48.1803 9.53451 47.959 9.3457C47.7376 9.1569 47.4251 8.97461 47.0215 8.79883C46.6243 8.61654 46.1165 8.43099 45.498 8.24219C44.821 8.03385 44.196 7.80273 43.623 7.54883C43.0566 7.28841 42.5618 6.98893 42.1387 6.65039C41.7155 6.30534 41.3867 5.91146 41.1523 5.46875C40.918 5.01953 40.8008 4.50195 40.8008 3.91602C40.8008 3.33659 40.9212 2.80924 41.1621 2.33398C41.4095 1.85872 41.7578 1.44857 42.207 1.10352C42.6628 0.751953 43.1999 0.481771 43.8184 0.292969C44.4368 0.0976562 45.1204 0 45.8691 0C46.9238 0 47.832 0.195312 48.5938 0.585938C49.362 0.976562 49.9512 1.50065 50.3613 2.1582C50.778 2.81576 50.9863 3.54167 50.9863 4.33594H48.5547C48.5547 3.86719 48.4538 3.45378 48.252 3.0957C48.0566 2.73112 47.7572 2.44466 47.3535 2.23633C46.9564 2.02799 46.4518 1.92383 45.8398 1.92383C45.2604 1.92383 44.7786 2.01172 44.3945 2.1875C44.0104 2.36328 43.724 2.60091 43.5352 2.90039C43.3464 3.19987 43.252 3.53841 43.252 3.91602C43.252 4.18294 43.3138 4.42708 43.4375 4.64844C43.5612 4.86328 43.75 5.0651 44.0039 5.25391C44.2578 5.4362 44.5768 5.60872 44.9609 5.77148C45.3451 5.93424 45.7975 6.09049 46.3184 6.24023C47.1061 6.47461 47.793 6.73503 48.3789 7.02148C48.9648 7.30143 49.4531 7.62044 49.8438 7.97852C50.2344 8.33659 50.5273 8.74349 50.7227 9.19922C50.918 9.64844 51.0156 10.1595 51.0156 10.7324C51.0156 11.3314 50.8952 11.8717 50.6543 12.3535C50.4134 12.8288 50.0684 13.2357 49.6191 13.5742C49.1764 13.9062 48.6426 14.1634 48.0176 14.3457C47.3991 14.5215 46.709 14.6094 45.9473 14.6094C45.2637 14.6094 44.5898 14.5182 43.9258 14.3359C43.2682 14.1536 42.6693 13.877 42.1289 13.5059C41.5885 13.1283 41.1589 12.6595 40.8398 12.0996C40.5208 11.5332 40.3613 10.8724 40.3613 10.1172H42.8125C42.8125 10.5794 42.8906 10.9733 43.0469 11.2988C43.2096 11.6243 43.4342 11.8913 43.7207 12.0996C44.0072 12.3014 44.3392 12.4512 44.7168 12.5488C45.1009 12.6465 45.5111 12.6953 45.9473 12.6953C46.5202 12.6953 46.9987 12.6139 47.3828 12.4512C47.7734 12.2884 48.0664 12.0605 48.2617 11.7676C48.457 11.4746 48.5547 11.1361 48.5547 10.752ZM62.4902 12.4707V14.4141H54.9414V12.4707H62.4902ZM55.6348 0.195312V14.4141H53.1836V0.195312H55.6348ZM61.5039 6.13281V8.04688H54.9414V6.13281H61.5039ZM62.4414 0.195312V2.14844H54.9414V0.195312H62.4414ZM76.9531 10.752C76.9531 10.459 76.9076 10.1986 76.8164 9.9707C76.7318 9.74284 76.5788 9.53451 76.3574 9.3457C76.1361 9.1569 75.8236 8.97461 75.4199 8.79883C75.0228 8.61654 74.515 8.43099 73.8965 8.24219C73.2194 8.03385 72.5944 7.80273 72.0215 7.54883C71.4551 7.28841 70.9603 6.98893 70.5371 6.65039C70.1139 6.30534 69.7852 5.91146 69.5508 5.46875C69.3164 5.01953 69.1992 4.50195 69.1992 3.91602C69.1992 3.33659 69.3197 2.80924 69.5605 2.33398C69.8079 1.85872 70.1562 1.44857 70.6055 1.10352C71.0612 0.751953 71.5983 0.481771 72.2168 0.292969C72.8353 0.0976562 73.5189 0 74.2676 0C75.3223 0 76.2305 0.195312 76.9922 0.585938C77.7604 0.976562 78.3496 1.50065 78.7598 2.1582C79.1764 2.81576 79.3848 3.54167 79.3848 4.33594H76.9531C76.9531 3.86719 76.8522 3.45378 76.6504 3.0957C76.4551 2.73112 76.1556 2.44466 75.752 2.23633C75.3548 2.02799 74.8503 1.92383 74.2383 1.92383C73.6589 1.92383 73.1771 2.01172 72.793 2.1875C72.4089 2.36328 72.1224 2.60091 71.9336 2.90039C71.7448 3.19987 71.6504 3.53841 71.6504 3.91602C71.6504 4.18294 71.7122 4.42708 71.8359 4.64844C71.9596 4.86328 72.1484 5.0651 72.4023 5.25391C72.6562 5.4362 72.9753 5.60872 73.3594 5.77148C73.7435 5.93424 74.196 6.09049 74.7168 6.24023C75.5046 6.47461 76.1914 6.73503 76.7773 7.02148C77.3633 7.30143 77.8516 7.62044 78.2422 7.97852C78.6328 8.33659 78.9258 8.74349 79.1211 9.19922C79.3164 9.64844 79.4141 10.1595 79.4141 10.7324C79.4141 11.3314 79.2936 11.8717 79.0527 12.3535C78.8118 12.8288 78.4668 13.2357 78.0176 13.5742C77.5749 13.9062 77.041 14.1634 76.416 14.3457C75.7975 14.5215 75.1074 14.6094 74.3457 14.6094C73.6621 14.6094 72.9883 14.5182 72.3242 14.3359C71.6667 14.1536 71.0677 13.877 70.5273 13.5059C69.987 13.1283 69.5573 12.6595 69.2383 12.0996C68.9193 11.5332 68.7598 10.8724 68.7598 10.1172H71.2109C71.2109 10.5794 71.2891 10.9733 71.4453 11.2988C71.6081 11.6243 71.8327 11.8913 72.1191 12.0996C72.4056 12.3014 72.7376 12.4512 73.1152 12.5488C73.4993 12.6465 73.9095 12.6953 74.3457 12.6953C74.9186 12.6953 75.3971 12.6139 75.7812 12.4512C76.1719 12.2884 76.4648 12.0605 76.6602 11.7676C76.8555 11.4746 76.9531 11.1361 76.9531 10.752ZM87.4316 0.195312V14.4141H85V0.195312H87.4316ZM91.8945 0.195312V2.14844H80.5762V0.195312H91.8945ZM101.748 0.195312H104.189V9.69727C104.189 10.778 103.955 11.6829 103.486 12.4121C103.018 13.1413 102.38 13.6914 101.572 14.0625C100.771 14.4271 99.8763 14.6094 98.8867 14.6094C97.8646 14.6094 96.9531 14.4271 96.1523 14.0625C95.3516 13.6914 94.7201 13.1413 94.2578 12.4121C93.8021 11.6829 93.5742 10.778 93.5742 9.69727V0.195312H96.0156V9.69727C96.0156 10.3809 96.1328 10.944 96.3672 11.3867C96.6016 11.8229 96.9336 12.1452 97.3633 12.3535C97.793 12.5618 98.3008 12.666 98.8867 12.666C99.4727 12.666 99.9772 12.5618 100.4 12.3535C100.83 12.1452 101.162 11.8229 101.396 11.3867C101.631 10.944 101.748 10.3809 101.748 9.69727V0.195312ZM110.986 14.4141H107.949L107.969 12.4707H110.986C111.865 12.4707 112.601 12.2786 113.193 11.8945C113.792 11.5104 114.242 10.9603 114.541 10.2441C114.847 9.52799 115 8.67513 115 7.68555V6.91406C115 6.14583 114.912 5.46549 114.736 4.87305C114.567 4.2806 114.313 3.78255 113.975 3.37891C113.643 2.97526 113.232 2.66927 112.744 2.46094C112.262 2.2526 111.706 2.14844 111.074 2.14844H107.891V0.195312H111.074C112.018 0.195312 112.881 0.354818 113.662 0.673828C114.443 0.986328 115.117 1.4388 115.684 2.03125C116.257 2.6237 116.696 3.33333 117.002 4.16016C117.308 4.98698 117.461 5.91146 117.461 6.93359V7.68555C117.461 8.70768 117.308 9.63216 117.002 10.459C116.696 11.2858 116.257 11.9954 115.684 12.5879C115.111 13.1738 114.427 13.6263 113.633 13.9453C112.845 14.2578 111.963 14.4141 110.986 14.4141ZM109.307 0.195312V14.4141H106.855V0.195312H109.307ZM122.539 0.195312V14.4141H120.088V0.195312H122.539ZM136.924 6.91406V7.69531C136.924 8.76953 136.784 9.73307 136.504 10.5859C136.224 11.4388 135.824 12.1647 135.303 12.7637C134.788 13.3626 134.17 13.8216 133.447 14.1406C132.725 14.4531 131.924 14.6094 131.045 14.6094C130.173 14.6094 129.375 14.4531 128.652 14.1406C127.936 13.8216 127.314 13.3626 126.787 12.7637C126.26 12.1647 125.85 11.4388 125.557 10.5859C125.27 9.73307 125.127 8.76953 125.127 7.69531V6.91406C125.127 5.83984 125.27 4.87956 125.557 4.0332C125.843 3.18034 126.247 2.45443 126.768 1.85547C127.295 1.25 127.917 0.791016 128.633 0.478516C129.355 0.159505 130.153 0 131.025 0C131.904 0 132.705 0.159505 133.428 0.478516C134.15 0.791016 134.772 1.25 135.293 1.85547C135.814 2.45443 136.214 3.18034 136.494 4.0332C136.781 4.87956 136.924 5.83984 136.924 6.91406ZM134.473 7.69531V6.89453C134.473 6.10026 134.395 5.40039 134.238 4.79492C134.089 4.18294 133.864 3.67188 133.564 3.26172C133.271 2.84505 132.91 2.53255 132.48 2.32422C132.051 2.10938 131.566 2.00195 131.025 2.00195C130.485 2.00195 130.003 2.10938 129.58 2.32422C129.157 2.53255 128.796 2.84505 128.496 3.26172C128.203 3.67188 127.979 4.18294 127.822 4.79492C127.666 5.40039 127.588 6.10026 127.588 6.89453V7.69531C127.588 8.48958 127.666 9.19271 127.822 9.80469C127.979 10.4167 128.206 10.9342 128.506 11.3574C128.812 11.7741 129.176 12.0898 129.6 12.3047C130.023 12.513 130.505 12.6172 131.045 12.6172C131.592 12.6172 132.077 12.513 132.5 12.3047C132.923 12.0898 133.281 11.7741 133.574 11.3574C133.867 10.9342 134.089 10.4167 134.238 9.80469C134.395 9.19271 134.473 8.48958 134.473 7.69531Z" fill="#F5F5F5"/>
</svg>
